<svg width="461" height="111" viewBox="0 0 461 111" fill="none" xmlns="http://www.w3.org/2000/svg">
<path d="M36 18H97.3636V28.7143C97.3636 56.3286 74.9779 78.7143 47.3636 78.7143H36V18Z" fill="#BA4ABA" fill-opacity="0.7"/>
<path d="M42.8181 25.1428H104.182V35.8572C104.182 63.4714 81.796 85.8571 54.1818 85.8571H42.8181V25.1428Z" fill="#BA4ABA" fill-opacity="0.5"/>
<path d="M49.6364 32.2857H111V43C111 70.6143 88.6143 93 61 93H49.6364V32.2857Z" fill="#BA4ABA" fill-opacity="0.2"/>
<path d="M122.775 26.65H148.2C152.55 26.65 155.925 27.875 158.325 30.325C160.775 32.775 162 36.025 162 40.075C162 42.075 161.725 43.775 161.175 45.175C160.675 46.575 159.975 47.725 159.075 48.625C158.225 49.525 157.2 50.2 156 50.65C154.85 51.05 153.6 51.275 152.25 51.325V51.775C153.5 51.775 154.8 52 156.15 52.45C157.55 52.9 158.825 53.625 159.975 54.625C161.125 55.575 162.075 56.825 162.825 58.375C163.625 59.925 164.025 61.825 164.025 64.075C164.025 66.125 163.675 68.075 162.975 69.925C162.325 71.725 161.4 73.3 160.2 74.65C159 76 157.575 77.075 155.925 77.875C154.275 78.625 152.475 79 150.525 79H122.775V26.65ZM134.175 69.4H147.3C148.8 69.4 149.975 69 150.825 68.2C151.725 67.35 152.175 66.175 152.175 64.675V62.125C152.175 60.625 151.725 59.475 150.825 58.675C149.975 57.825 148.8 57.4 147.3 57.4H134.175V69.4ZM134.175 48.1H145.5C147 48.1 148.175 47.675 149.025 46.825C149.875 45.975 150.3 44.8 150.3 43.3V41.05C150.3 39.55 149.875 38.375 149.025 37.525C148.175 36.675 147 36.25 145.5 36.25H134.175V48.1ZM166.949 79V39.625H178.049V48.175H178.424C178.624 47.075 178.974 46.025 179.474 45.025C179.974 43.975 180.624 43.05 181.424 42.25C182.274 41.45 183.274 40.825 184.424 40.375C185.574 39.875 186.924 39.625 188.474 39.625H190.424V49.975H187.649C184.399 49.975 181.974 50.4 180.374 51.25C178.824 52.1 178.049 53.675 178.049 55.975V79H166.949ZM208.08 79.9C205.08 79.9 202.405 79.425 200.055 78.475C197.705 77.475 195.705 76.1 194.055 74.35C192.455 72.55 191.23 70.375 190.38 67.825C189.58 65.275 189.18 62.425 189.18 59.275C189.18 56.175 189.58 53.375 190.38 50.875C191.18 48.325 192.355 46.15 193.905 44.35C195.505 42.55 197.455 41.175 199.755 40.225C202.055 39.225 204.68 38.725 207.63 38.725C210.88 38.725 213.655 39.275 215.955 40.375C218.305 41.475 220.205 42.95 221.655 44.8C223.155 46.65 224.23 48.8 224.88 51.25C225.58 53.65 225.93 56.175 225.93 58.825V62.125H200.655V62.725C200.655 65.325 201.355 67.4 202.755 68.95C204.155 70.45 206.355 71.2 209.355 71.2C211.655 71.2 213.53 70.75 214.98 69.85C216.43 68.9 217.78 67.775 219.03 66.475L224.58 73.375C222.83 75.425 220.53 77.025 217.68 78.175C214.88 79.325 211.68 79.9 208.08 79.9ZM207.855 46.9C205.605 46.9 203.83 47.65 202.53 49.15C201.28 50.6 200.655 52.55 200.655 55V55.6H214.455V54.925C214.455 52.525 213.905 50.6 212.805 49.15C211.755 47.65 210.105 46.9 207.855 46.9ZM257.62 79C255.62 79 253.945 78.375 252.595 77.125C251.295 75.875 250.47 74.2 250.12 72.1H249.67C249.07 74.65 247.745 76.6 245.695 77.95C243.645 79.25 241.12 79.9 238.12 79.9C234.17 79.9 231.145 78.85 229.045 76.75C226.945 74.65 225.895 71.875 225.895 68.425C225.895 64.275 227.395 61.2 230.395 59.2C233.445 57.15 237.57 56.125 242.77 56.125H248.995V53.65C248.995 51.75 248.495 50.25 247.495 49.15C246.495 48 244.82 47.425 242.47 47.425C240.27 47.425 238.52 47.9 237.22 48.85C235.92 49.8 234.845 50.875 233.995 52.075L227.395 46.225C228.995 43.875 230.995 42.05 233.395 40.75C235.845 39.4 239.145 38.725 243.295 38.725C248.895 38.725 253.095 39.95 255.895 42.4C258.695 44.85 260.095 48.425 260.095 53.125V70.375H263.77V79H257.62ZM242.245 72.175C244.095 72.175 245.67 71.775 246.97 70.975C248.32 70.175 248.995 68.875 248.995 67.075V62.425H243.595C239.245 62.425 237.07 63.9 237.07 66.85V67.975C237.07 69.425 237.52 70.5 238.42 71.2C239.32 71.85 240.595 72.175 242.245 72.175ZM265.97 23.5H277.07V56.275H277.52L282.395 49L290.27 39.625H302.57L289.445 54.7L304.07 79H290.87L282.02 62.35L277.07 67.9V79H265.97V23.5ZM317.93 79.9C315.03 79.9 312.43 79.425 310.13 78.475C307.88 77.525 305.955 76.15 304.355 74.35C302.805 72.55 301.605 70.375 300.755 67.825C299.905 65.275 299.48 62.425 299.48 59.275C299.48 56.125 299.905 53.275 300.755 50.725C301.605 48.175 302.805 46.025 304.355 44.275C305.955 42.475 307.88 41.1 310.13 40.15C312.43 39.2 315.03 38.725 317.93 38.725C320.83 38.725 323.405 39.2 325.655 40.15C327.955 41.1 329.88 42.475 331.43 44.275C333.03 46.025 334.255 48.175 335.105 50.725C335.955 53.275 336.38 56.125 336.38 59.275C336.38 62.425 335.955 65.275 335.105 67.825C334.255 70.375 333.03 72.55 331.43 74.35C329.88 76.15 327.955 77.525 325.655 78.475C323.405 79.425 320.83 79.9 317.93 79.9ZM317.93 71.125C320.13 71.125 321.83 70.45 323.03 69.1C324.23 67.75 324.83 65.825 324.83 63.325V55.3C324.83 52.8 324.23 50.875 323.03 49.525C321.83 48.175 320.13 47.5 317.93 47.5C315.73 47.5 314.03 48.175 312.83 49.525C311.63 50.875 311.03 52.8 311.03 55.3V63.325C311.03 65.825 311.63 67.75 312.83 69.1C314.03 70.45 315.73 71.125 317.93 71.125ZM362.289 72.4H361.914C361.564 73.4 361.089 74.35 360.489 75.25C359.939 76.15 359.214 76.95 358.314 77.65C357.414 78.35 356.339 78.9 355.089 79.3C353.889 79.7 352.489 79.9 350.889 79.9C346.839 79.9 343.764 78.575 341.664 75.925C339.614 73.225 338.589 69.375 338.589 64.375V39.625H349.689V63.4C349.689 65.8 350.114 67.65 350.964 68.95C351.814 70.25 353.264 70.9 355.314 70.9C356.164 70.9 357.014 70.775 357.864 70.525C358.714 70.275 359.464 69.925 360.114 69.475C360.764 68.975 361.289 68.375 361.689 67.675C362.089 66.975 362.289 66.15 362.289 65.2V39.625H373.389V79H362.289V72.4ZM392.267 79C388.417 79 385.492 78.025 383.492 76.075C381.542 74.125 380.567 71.275 380.567 67.525V48.25H375.017V39.625H377.792C379.292 39.625 380.317 39.275 380.867 38.575C381.417 37.825 381.692 36.775 381.692 35.425V28.975H391.667V39.625H399.467V48.25H391.667V70.375H398.867V79H392.267Z" fill="#BA4ABA"/>
</svg>
