<svg width="120" height="40" viewBox="0 0 120 40" fill="none" xmlns="http://www.w3.org/2000/svg">
<g clip-path="url(#clip0_29_2)">
<path d="M4 4H30.1818V4C30.1818 18.3068 18.5839 29.9048 4.27704 29.9048H4V4Z" fill="#BA4ABA" fill-opacity="0.7"/>
<path d="M6.90907 7.04761H33.0909V7.04761C33.0909 21.3544 21.4929 32.9524 7.18611 32.9524H6.90907V7.04761Z" fill="#BA4ABA" fill-opacity="0.5"/>
<path d="M9.81821 10.0952H36V10.0952C36 24.402 24.4021 36 10.0952 36H9.81821V10.0952Z" fill="#BA4ABA" fill-opacity="0.2"/>
<path d="M35.694 10.644H43.152C44.428 10.644 45.418 11.0033 46.122 11.722C46.8407 12.4407 47.2 13.394 47.2 14.582C47.2 15.1687 47.1193 15.6673 46.958 16.078C46.8113 16.4887 46.606 16.826 46.342 17.09C46.0927 17.354 45.792 17.552 45.44 17.684C45.1027 17.8013 44.736 17.8673 44.34 17.882V18.014C44.7067 18.014 45.088 18.08 45.484 18.212C45.8947 18.344 46.2687 18.5567 46.606 18.85C46.9433 19.1287 47.222 19.4953 47.442 19.95C47.6767 20.4047 47.794 20.962 47.794 21.622C47.794 22.2233 47.6913 22.7953 47.486 23.338C47.2953 23.866 47.024 24.328 46.672 24.724C46.32 25.12 45.902 25.4353 45.418 25.67C44.934 25.89 44.406 26 43.834 26H35.694V10.644ZM39.038 23.184H42.888C43.328 23.184 43.6727 23.0667 43.922 22.832C44.186 22.5827 44.318 22.238 44.318 21.798V21.05C44.318 20.61 44.186 20.2727 43.922 20.038C43.6727 19.7887 43.328 19.664 42.888 19.664H39.038V23.184ZM39.038 16.936H42.36C42.8 16.936 43.1447 16.8113 43.394 16.562C43.6433 16.3127 43.768 15.968 43.768 15.528V14.868C43.768 14.428 43.6433 14.0833 43.394 13.834C43.1447 13.5847 42.8 13.46 42.36 13.46H39.038V16.936ZM48.6518 26V14.45H51.9078V16.958H52.0178C52.0765 16.6353 52.1792 16.3273 52.3258 16.034C52.4725 15.726 52.6632 15.4547 52.8978 15.22C53.1472 14.9853 53.4405 14.802 53.7778 14.67C54.1152 14.5233 54.5112 14.45 54.9658 14.45H55.5378V17.486H54.7238C53.7705 17.486 53.0592 17.6107 52.5898 17.86C52.1352 18.1093 51.9078 18.5713 51.9078 19.246V26H48.6518ZM60.7169 26.264C59.8369 26.264 59.0523 26.1247 58.3629 25.846C57.6736 25.5527 57.0869 25.1493 56.6029 24.636C56.1336 24.108 55.7743 23.47 55.5249 22.722C55.2903 21.974 55.1729 21.138 55.1729 20.214C55.1729 19.3047 55.2903 18.4833 55.5249 17.75C55.7596 17.002 56.1043 16.364 56.5589 15.836C57.0283 15.308 57.6003 14.9047 58.2749 14.626C58.9496 14.3327 59.7196 14.186 60.5849 14.186C61.5383 14.186 62.3523 14.3473 63.0269 14.67C63.7163 14.9927 64.2736 15.4253 64.6989 15.968C65.1389 16.5107 65.4543 17.1413 65.6449 17.86C65.8503 18.564 65.9529 19.3047 65.9529 20.082V21.05H58.5389V21.226C58.5389 21.9887 58.7443 22.5973 59.1549 23.052C59.5656 23.492 60.2109 23.712 61.0909 23.712C61.7656 23.712 62.3156 23.58 62.7409 23.316C63.1663 23.0373 63.5623 22.7073 63.9289 22.326L65.5569 24.35C65.0436 24.9513 64.3689 25.4207 63.5329 25.758C62.7116 26.0953 61.7729 26.264 60.7169 26.264ZM60.6509 16.584C59.9909 16.584 59.4703 16.804 59.0889 17.244C58.7223 17.6693 58.5389 18.2413 58.5389 18.96V19.136H62.5869V18.938C62.5869 18.234 62.4256 17.6693 62.1029 17.244C61.7949 16.804 61.3109 16.584 60.6509 16.584ZM75.2485 26C74.6618 26 74.1705 25.8167 73.7745 25.45C73.3931 25.0833 73.1511 24.592 73.0485 23.976H72.9165C72.7405 24.724 72.3518 25.296 71.7505 25.692C71.1491 26.0733 70.4085 26.264 69.5285 26.264C68.3698 26.264 67.4825 25.956 66.8665 25.34C66.2505 24.724 65.9425 23.91 65.9425 22.898C65.9425 21.6807 66.3825 20.7787 67.2625 20.192C68.1571 19.5907 69.3671 19.29 70.8925 19.29H72.7185V18.564C72.7185 18.0067 72.5718 17.5667 72.2785 17.244C71.9851 16.9067 71.4938 16.738 70.8045 16.738C70.1591 16.738 69.6458 16.8773 69.2645 17.156C68.8831 17.4347 68.5678 17.75 68.3185 18.102L66.3825 16.386C66.8518 15.6967 67.4385 15.1613 68.1425 14.78C68.8611 14.384 69.8291 14.186 71.0465 14.186C72.6891 14.186 73.9211 14.5453 74.7425 15.264C75.5638 15.9827 75.9745 17.0313 75.9745 18.41V23.47H77.0525V26H75.2485ZM70.7385 23.998C71.2811 23.998 71.7431 23.8807 72.1245 23.646C72.5205 23.4113 72.7185 23.03 72.7185 22.502V21.138H71.1345C69.8585 21.138 69.2205 21.5707 69.2205 22.436V22.766C69.2205 23.1913 69.3525 23.5067 69.6165 23.712C69.8805 23.9027 70.2545 23.998 70.7385 23.998ZM77.6978 9.72H80.9538V19.334H81.0858L82.5158 17.2L84.8258 14.45H88.4338L84.5838 18.872L88.8738 26H85.0018L82.4058 21.116L80.9538 22.744V26H77.6978V9.72ZM92.9395 26.264C92.0889 26.264 91.3262 26.1247 90.6515 25.846C89.9915 25.5673 89.4269 25.164 88.9575 24.636C88.5029 24.108 88.1509 23.47 87.9015 22.722C87.6522 21.974 87.5275 21.138 87.5275 20.214C87.5275 19.29 87.6522 18.454 87.9015 17.706C88.1509 16.958 88.5029 16.3273 88.9575 15.814C89.4269 15.286 89.9915 14.8827 90.6515 14.604C91.3262 14.3253 92.0889 14.186 92.9395 14.186C93.7902 14.186 94.5455 14.3253 95.2055 14.604C95.8802 14.8827 96.4449 15.286 96.8995 15.814C97.3689 16.3273 97.7282 16.958 97.9775 17.706C98.2269 18.454 98.3515 19.29 98.3515 20.214C98.3515 21.138 98.2269 21.974 97.9775 22.722C97.7282 23.47 97.3689 24.108 96.8995 24.636C96.4449 25.164 95.8802 25.5673 95.2055 25.846C94.5455 26.1247 93.7902 26.264 92.9395 26.264ZM92.9395 23.69C93.5849 23.69 94.0835 23.492 94.4355 23.096C94.7875 22.7 94.9635 22.1353 94.9635 21.402V19.048C94.9635 18.3147 94.7875 17.75 94.4355 17.354C94.0835 16.958 93.5849 16.76 92.9395 16.76C92.2942 16.76 91.7955 16.958 91.4435 17.354C91.0915 17.75 90.9155 18.3147 90.9155 19.048V21.402C90.9155 22.1353 91.0915 22.7 91.4435 23.096C91.7955 23.492 92.2942 23.69 92.9395 23.69ZM105.952 24.064H105.842C105.739 24.3573 105.6 24.636 105.424 24.9C105.262 25.164 105.05 25.3987 104.786 25.604C104.522 25.8093 104.206 25.9707 103.84 26.088C103.488 26.2053 103.077 26.264 102.608 26.264C101.42 26.264 100.518 25.8753 99.9015 25.098C99.3002 24.306 98.9995 23.1767 98.9995 21.71V14.45H102.256V21.424C102.256 22.128 102.38 22.6707 102.63 23.052C102.879 23.4333 103.304 23.624 103.906 23.624C104.155 23.624 104.404 23.5873 104.654 23.514C104.903 23.4407 105.123 23.338 105.314 23.206C105.504 23.0593 105.658 22.8833 105.776 22.678C105.893 22.4727 105.952 22.2307 105.952 21.952V14.45H109.208V26H105.952V24.064ZM114.745 26C113.616 26 112.758 25.714 112.171 25.142C111.599 24.57 111.313 23.734 111.313 22.634V16.98H109.685V14.45H110.499C110.939 14.45 111.24 14.3473 111.401 14.142C111.562 13.922 111.643 13.614 111.643 13.218V11.326H114.569V14.45H116.857V16.98H114.569V23.47H116.681V26H114.745Z" fill="#BA4ABA"/>
</g>
<defs>
<clipPath id="clip0_29_2">
<rect width="120" height="40" fill="white"/>
</clipPath>
</defs>
</svg>
